# xmcd
#
# Track frame offsets:
#	150
#	20003
#	34499
#	52875
#	70431
#	85461
#	118939
#	135685
#	152172
#	172464
#	184883
#	201094
#
# Disc length: 3086 seconds
#
# Revision: 0
# Processed by: cddbd v1.5.2PL0 Copyright (c) Steve Scherf et al.
# Submitted via: dBpowerAMP V4.0
#
DISCID=ba0c0c0c
DTITLE=Nelson César - As Mais Pedidas
DYEAR=2008
DGENRE=Country
TTITLE0=Iolanda
TTITLE1=Romaria
TTITLE2=Estou Apaixonado
TTITLE3=Mil Vezes Cantarei
TTITLE4=Pra Que Ciúmes
TTITLE5=Dama de Vermelho - Tenho Ciúmes - Fruto Especial
TTITLE6=Dou a Vida Por Um Beijo
TTITLE7=Vida Vazia
TTITLE8=Separação
TTITLE9=Meu Filho Deus Lhe Proteja
TTITLE10=Hey Jude
TTITLE11=Mulheres - Deixa eu Te Amar
EXTD=Voz e Violão - Ao Vivo
EXTT0=
EXTT1=
EXTT2=
EXTT3=
EXTT4=
EXTT5=
EXTT6=
EXTT7=
EXTT8=
EXTT9=
EXTT10=
EXTT11=
PLAYORDER=
